<?xml version="1.0" encoding="UTF-8"?>
<svg id="Layer_1" data-name="Layer 1" xmlns="http://www.w3.org/2000/svg" xmlns:xlink="http://www.w3.org/1999/xlink" viewBox="0 0 1920 404.43">
  <defs>
    <style>
      .cls-1 {
        fill: #e6e6e6;
      }

      .cls-2 {
        fill: url(#linear-gradient-3);
      }

      .cls-3 {
        fill: url(#linear-gradient-2);
      }

      .cls-4 {
        fill: url(#linear-gradient);
      }
    </style>
    <linearGradient id="linear-gradient" x1="340.53" y1="73.56" x2="213.2" y2="237.91" gradientUnits="userSpaceOnUse">
      <stop offset="0" stop-color="#1ca44d"/>
      <stop offset="1" stop-color="#20b957"/>
    </linearGradient>
    <linearGradient id="linear-gradient-2" x1="269.18" y1="271.51" x2="242.33" y2="245.49" gradientUnits="userSpaceOnUse">
      <stop offset=".59" stop-color="#fff"/>
      <stop offset="1" stop-color="#949494"/>
    </linearGradient>
    <linearGradient id="linear-gradient-3" x1="316.12" y1="231.29" x2="284.56" y2="198.35" xlink:href="#linear-gradient-2"/>
  </defs>
  <g>
    <path class="cls-1" d="M487.92,162.89v119.82h-24.57l-47.68-69.15h-.76v69.15h-28.96v-119.82h24.92l47.16,69.04h.99v-69.04h28.9Z"/>
    <path class="cls-1" d="M619.14,222.8c0,13.19-2.54,24.36-7.61,33.52-5.07,9.17-11.93,16.13-20.56,20.89-8.64,4.76-18.32,7.14-29.05,7.14s-20.46-2.4-29.08-7.2c-8.62-4.8-15.46-11.77-20.51-20.92-5.05-9.15-7.58-20.29-7.58-33.44s2.53-24.36,7.58-33.52c5.05-9.16,11.89-16.13,20.51-20.89,8.62-4.76,18.31-7.14,29.08-7.14s20.41,2.38,29.05,7.14c8.64,4.76,15.49,11.72,20.56,20.89,5.07,9.17,7.61,20.34,7.61,33.52ZM589.54,222.8c0-7.8-1.1-14.39-3.31-19.77-2.2-5.38-5.36-9.46-9.48-12.23s-9.06-4.15-14.83-4.15-10.67,1.39-14.8,4.15c-4.13,2.77-7.3,6.84-9.51,12.23s-3.31,11.98-3.31,19.77,1.1,14.39,3.31,19.78c2.2,5.38,5.37,9.46,9.51,12.23,4.13,2.77,9.07,4.15,14.8,4.15s10.72-1.38,14.83-4.15c4.11-2.77,7.27-6.84,9.48-12.23,2.2-5.38,3.31-11.97,3.31-19.78Z"/>
    <path class="cls-1" d="M658.75,282.71l-34.87-119.82h32l18.08,78.51h.99l20.65-78.51h26.09l20.65,78.69h.99l18.14-78.69h31.94l-34.81,119.82h-27.91l-21.59-72.66h-.94l-21.59,72.66h-27.85Z"/>
    <path class="cls-1" d="M907.4,162.89v119.82h-24.57l-47.68-69.15h-.76v69.15h-28.96v-119.82h24.92l47.16,69.04h.99v-69.04h28.9Z"/>
    <path class="cls-1" d="M954.16,129.15l34.34,112.47h1.27l34.34-112.47h41.54l-51.81,153.56h-49.41l-51.81-153.56h41.54Z"/>
    <path class="cls-1" d="M1096.52,162.89v119.82h-28.96v-119.82h28.96Z"/>
    <path class="cls-1" d="M1179.42,198.81c-.39-4.29-2.12-7.63-5.18-10.03-3.06-2.4-7.42-3.6-13.08-3.6-3.74,0-6.87.49-9.36,1.46-2.5.97-4.37,2.31-5.62,4.01s-1.89,3.64-1.93,5.82c-.08,1.79.28,3.37,1.08,4.74s1.97,2.57,3.51,3.6c1.54,1.03,3.4,1.94,5.58,2.72,2.19.78,4.64,1.46,7.37,2.05l10.3,2.34c5.93,1.29,11.16,3,15.71,5.15,4.54,2.14,8.37,4.7,11.47,7.66,3.1,2.97,5.45,6.38,7.05,10.24,1.6,3.86,2.42,8.19,2.46,12.99-.04,7.57-1.95,14.06-5.73,19.48s-9.22,9.58-16.29,12.46c-7.08,2.89-15.61,4.33-25.6,4.33s-18.76-1.5-26.21-4.5c-7.45-3-13.24-7.57-17.38-13.69-4.14-6.12-6.26-13.87-6.38-23.23h27.73c.23,3.86,1.27,7.08,3.1,9.65,1.83,2.57,4.36,4.52,7.58,5.85,3.22,1.33,6.95,1.99,11.2,1.99,3.9,0,7.23-.53,9.97-1.58,2.75-1.05,4.87-2.52,6.35-4.39,1.48-1.87,2.24-4.02,2.28-6.44-.04-2.26-.74-4.2-2.11-5.82s-3.46-3.02-6.29-4.21c-2.83-1.19-6.43-2.29-10.79-3.31l-12.52-2.92c-10.38-2.38-18.55-6.23-24.52-11.56-5.97-5.32-8.93-12.53-8.89-21.62-.04-7.41,1.95-13.9,5.97-19.48,4.02-5.58,9.57-9.93,16.67-13.05,7.1-3.12,15.19-4.68,24.28-4.68s17.34,1.57,24.19,4.71c6.85,3.14,12.16,7.54,15.94,13.19,3.78,5.66,5.71,12.21,5.79,19.66h-27.73Z"/>
    <path class="cls-1" d="M1252.44,162.89v119.82h-28.96v-119.82h28.96Z"/>
    <path class="cls-1" d="M1266.65,186.41v-23.52h101.27v23.52h-36.33v96.3h-28.55v-96.3h-36.39Z"/>
    <path class="cls-1" d="M1489.73,222.8c0,13.19-2.54,24.36-7.61,33.52-5.07,9.17-11.93,16.13-20.56,20.89-8.64,4.76-18.32,7.14-29.05,7.14s-20.46-2.4-29.08-7.2-15.45-11.77-20.5-20.92c-5.05-9.15-7.58-20.29-7.58-33.44s2.52-24.36,7.58-33.52c5.05-9.16,11.89-16.13,20.5-20.89,8.62-4.76,18.31-7.14,29.08-7.14s20.41,2.38,29.05,7.14c8.64,4.76,15.49,11.72,20.56,20.89,5.07,9.17,7.61,20.34,7.61,33.52ZM1460.13,222.8c0-7.8-1.1-14.39-3.31-19.77-2.2-5.38-5.36-9.46-9.48-12.23s-9.06-4.15-14.83-4.15-10.67,1.39-14.8,4.15c-4.14,2.77-7.3,6.84-9.51,12.23s-3.3,11.98-3.3,19.77,1.1,14.39,3.3,19.78c2.2,5.38,5.37,9.46,9.51,12.23,4.13,2.77,9.07,4.15,14.8,4.15s10.72-1.38,14.83-4.15c4.11-2.77,7.27-6.84,9.48-12.23,2.2-5.38,3.31-11.97,3.31-19.78Z"/>
    <path class="cls-1" d="M1506.58,282.71v-119.82h49.5c8.97,0,16.72,1.61,23.25,4.83,6.53,3.22,11.58,7.82,15.12,13.81s5.32,13.08,5.32,21.27-1.81,15.36-5.44,21.15c-3.63,5.79-8.78,10.2-15.45,13.22-6.67,3.02-14.57,4.53-23.69,4.53h-31.3v-22.82h25.92c4.37,0,8.02-.57,10.97-1.73,2.94-1.15,5.18-2.9,6.7-5.26,1.52-2.36,2.28-5.39,2.28-9.1s-.76-6.78-2.28-9.21c-1.52-2.44-3.76-4.27-6.73-5.5-2.97-1.23-6.61-1.84-10.94-1.84h-14.28v96.47h-28.96ZM1574.04,227.95l29.84,54.76h-31.59l-29.25-54.76h31.01Z"/>
    <path class="cls-1" d="M1680.4,198.81c-.39-4.29-2.12-7.63-5.18-10.03-3.06-2.4-7.42-3.6-13.08-3.6-3.74,0-6.87.49-9.36,1.46-2.5.97-4.37,2.31-5.62,4.01s-1.89,3.64-1.93,5.82c-.08,1.79.28,3.37,1.08,4.74.8,1.36,1.97,2.57,3.51,3.6,1.54,1.03,3.4,1.94,5.59,2.72,2.18.78,4.64,1.46,7.37,2.05l10.3,2.34c5.93,1.29,11.16,3,15.71,5.15,4.54,2.14,8.37,4.7,11.47,7.66,3.1,2.97,5.45,6.38,7.05,10.24,1.6,3.86,2.42,8.19,2.46,12.99-.04,7.57-1.95,14.06-5.73,19.48s-9.21,9.58-16.29,12.46-15.61,4.33-25.6,4.33-18.76-1.5-26.21-4.5c-7.45-3-13.24-7.57-17.38-13.69-4.14-6.12-6.26-13.87-6.38-23.23h27.73c.23,3.86,1.27,7.08,3.1,9.65,1.83,2.57,4.36,4.52,7.58,5.85,3.22,1.33,6.95,1.99,11.2,1.99,3.9,0,7.23-.53,9.97-1.58,2.75-1.05,4.87-2.52,6.35-4.39,1.48-1.87,2.24-4.02,2.28-6.44-.04-2.26-.74-4.2-2.11-5.82-1.37-1.62-3.46-3.02-6.29-4.21s-6.43-2.29-10.79-3.31l-12.52-2.92c-10.38-2.38-18.55-6.23-24.51-11.56-5.97-5.32-8.93-12.53-8.89-21.62-.04-7.41,1.95-13.9,5.97-19.48s9.57-9.93,16.67-13.05c7.1-3.12,15.19-4.68,24.28-4.68s17.35,1.57,24.19,4.71c6.85,3.14,12.16,7.54,15.94,13.19,3.78,5.66,5.71,12.21,5.79,19.66h-27.73Z"/>
  </g>
  <polyline class="cls-4" points="386.8 92.15 340.68 92.15 269.92 175.12 269.92 137.37 230.42 137.37 230.42 218.4 230.44 218.4 230.42 261.75"/>
  <polygon class="cls-3" points="230.42 282.76 269.59 282.76 269.59 223.09 230.42 265.8 230.42 282.76"/>
  <polygon class="cls-2" points="280.48 211.55 325.62 282.76 372.46 282.76 308.61 181.89 280.48 211.55"/>
</svg>